<?xml version="1.0" standalone="no"?>
<!DOCTYPE svg PUBLIC "-//W3C//DTD SVG 20010904//EN"
 "http://www.w3.org/TR/2001/REC-SVG-20010904/DTD/svg10.dtd">
<svg version="1.0" xmlns="http://www.w3.org/2000/svg"
 width="383.000000pt" height="445.000000pt" viewBox="0 0 383.000000 445.000000"
 preserveAspectRatio="xMidYMid meet">

<g transform="translate(0.000000,445.000000) scale(0.100000,-0.100000)"
fill="currentcolor" stroke="none">
<path d="M1846 4405 c-4 -11 -21 -15 -60 -15 -39 0 -55 -4 -60 -15 -3 -8 -18
-15 -33 -15 -15 0 -37 -7 -47 -15 -11 -8 -39 -15 -62 -15 -28 0 -44 -5 -48
-15 -3 -9 -19 -15 -41 -15 -20 0 -43 -7 -51 -15 -9 -8 -33 -15 -55 -15 -23 0
-47 -7 -55 -15 -9 -8 -33 -15 -55 -15 -23 0 -47 -7 -55 -15 -9 -8 -29 -15 -45
-15 -17 0 -37 -7 -45 -15 -9 -8 -33 -15 -55 -15 -23 0 -47 -7 -55 -15 -9 -8
-33 -15 -54 -15 -21 0 -40 -4 -42 -10 -2 -5 -25 -13 -53 -16 -27 -4 -54 -13
-58 -21 -4 -7 -25 -13 -45 -13 -20 0 -46 -7 -56 -15 -11 -8 -37 -15 -58 -15
-21 0 -38 -4 -38 -9 0 -5 -23 -11 -51 -13 -28 -3 -54 -10 -58 -15 -3 -5 -24
-13 -45 -16 -22 -4 -42 -11 -45 -16 -4 -5 -30 -13 -59 -17 -28 -3 -52 -10 -52
-15 0 -4 -25 -11 -55 -14 -30 -4 -55 -11 -55 -16 0 -5 -18 -9 -39 -9 -24 0
-41 -5 -44 -14 -3 -8 -16 -16 -29 -18 l-23 -3 2 -289 c1 -194 5 -292 12 -299
7 -7 11 -62 11 -149 0 -116 2 -138 15 -138 12 0 15 -17 15 -89 0 -58 4 -91 11
-93 7 -2 14 -37 17 -83 2 -44 9 -83 15 -87 6 -3 12 -31 15 -62 2 -31 8 -59 13
-62 5 -3 9 -29 9 -58 0 -35 5 -58 15 -66 9 -7 15 -29 15 -50 0 -21 5 -40 11
-42 6 -2 13 -26 16 -53 3 -28 10 -53 15 -56 5 -3 12 -25 15 -48 3 -22 9 -41
13 -41 4 0 11 -20 14 -45 4 -25 11 -45 17 -45 5 0 9 -18 9 -40 0 -29 4 -40 15
-40 10 0 15 -10 15 -34 0 -19 7 -41 15 -50 8 -8 15 -26 15 -39 0 -14 7 -27 15
-31 8 -3 15 -16 15 -30 0 -14 5 -28 10 -31 6 -3 10 -19 10 -35 0 -16 4 -31 9
-34 13 -8 51 -89 51 -108 0 -9 7 -18 15 -22 8 -3 15 -17 15 -31 0 -14 3 -25 8
-25 4 0 16 -19 27 -43 11 -23 25 -46 32 -50 7 -4 13 -19 13 -31 0 -13 7 -26
15 -30 8 -3 15 -17 15 -31 0 -16 6 -25 15 -25 8 0 15 -7 15 -15 0 -8 5 -15 10
-15 6 0 10 -9 10 -19 0 -11 7 -26 15 -35 8 -8 15 -19 15 -24 0 -5 7 -15 15
-22 8 -7 15 -21 15 -31 0 -11 7 -19 15 -19 8 0 15 -7 15 -15 0 -8 5 -15 10
-15 6 0 10 -6 10 -13 0 -12 9 -26 50 -74 5 -7 10 -17 10 -23 0 -5 7 -10 15
-10 8 0 15 -9 15 -20 0 -11 18 -37 40 -59 22 -21 40 -44 40 -50 0 -6 7 -11 15
-11 8 0 15 -7 15 -15 0 -8 8 -24 18 -34 32 -37 42 -50 42 -61 0 -5 7 -10 15
-10 8 0 15 -6 15 -13 0 -7 11 -21 25 -31 14 -10 25 -25 25 -32 0 -8 5 -14 11
-14 6 0 30 -19 54 -42 150 -147 195 -188 204 -188 6 0 11 -6 11 -14 0 -8 11
-17 25 -20 14 -4 25 -11 25 -16 0 -6 7 -10 15 -10 8 0 15 -7 15 -15 0 -8 7
-15 15 -15 8 0 15 -7 15 -15 0 -9 9 -15 25 -15 16 0 25 -6 25 -15 0 -8 7 -15
15 -15 9 0 18 -7 21 -15 4 -8 15 -15 25 -15 11 0 22 -6 25 -14 3 -8 16 -17 30
-20 13 -4 24 -11 24 -16 0 -6 7 -10 15 -10 8 0 15 -7 15 -15 0 -10 10 -15 30
-15 20 0 30 -5 30 -15 0 -9 9 -15 23 -15 12 0 31 -7 41 -15 26 -19 62 -19 70
0 3 8 17 15 31 15 16 0 25 6 25 15 0 9 9 15 25 15 16 0 25 6 25 15 0 10 10 15
30 15 20 0 30 5 30 15 0 8 7 15 15 15 8 0 15 4 15 10 0 5 11 12 24 16 14 3 27
12 30 20 3 8 10 14 16 14 12 0 32 15 58 43 9 9 22 17 29 17 7 0 13 4 13 10 0
5 11 12 25 16 14 3 25 12 25 20 0 8 4 14 10 14 8 0 49 35 130 113 16 15 33 27
37 27 11 0 43 38 43 50 0 6 7 10 15 10 8 0 15 5 15 10 0 13 37 50 50 50 6 0
10 5 10 11 0 7 11 22 25 35 14 13 25 28 25 34 0 5 7 10 15 10 8 0 15 7 15 15
0 8 7 15 15 15 8 0 15 5 15 11 0 7 11 22 24 34 13 12 27 32 31 43 3 12 11 22
16 22 5 0 9 5 9 10 0 6 14 24 30 40 17 16 30 34 30 40 0 5 4 10 10 10 5 0 12
11 16 25 3 14 10 25 15 25 5 0 9 5 9 10 0 6 14 24 30 40 17 16 30 36 30 45 0
9 11 26 24 38 14 13 28 35 31 50 4 15 11 27 16 27 5 0 9 7 9 15 0 8 7 15 15
15 10 0 15 10 15 30 0 20 5 30 15 30 8 0 15 7 15 15 0 8 5 15 10 15 6 0 10 11
10 25 0 14 6 28 14 31 8 3 18 19 21 35 4 16 11 29 16 29 5 0 9 11 9 25 0 16 6
25 15 25 10 0 15 10 15 30 0 17 4 30 9 30 5 0 12 12 15 26 4 15 14 33 21 41 8
8 15 23 15 34 0 10 5 19 10 19 6 0 10 11 10 25 0 14 7 28 15 31 9 4 15 19 15
35 0 16 4 29 10 29 5 0 13 18 16 41 4 22 13 43 20 46 9 3 14 20 14 44 0 21 4
39 9 39 5 0 12 16 15 35 4 19 11 35 16 35 6 0 10 18 10 40 0 27 5 43 15 46 10
4 15 20 15 44 0 21 5 40 11 42 6 2 14 27 17 56 2 29 8 52 13 52 4 0 11 17 14
38 4 20 10 46 15 57 5 11 11 42 13 70 3 27 10 51 16 53 6 2 11 21 11 42 0 20
7 54 15 73 8 20 15 63 15 96 0 40 5 65 15 75 11 10 15 36 15 85 0 39 4 71 9
71 4 0 11 64 14 142 3 89 9 144 16 146 7 2 11 61 11 175 1 142 12 364 23 452
2 16 -5 21 -35 23 -25 2 -38 8 -38 18 0 10 -12 14 -44 14 -24 0 -46 5 -48 11
-2 5 -24 13 -48 16 -25 3 -49 9 -55 13 -5 4 -30 11 -55 15 -25 4 -48 12 -51
17 -3 5 -23 11 -45 15 -21 3 -42 11 -45 16 -4 5 -30 12 -58 15 -28 2 -51 8
-51 12 0 4 -25 11 -55 15 -30 3 -55 10 -55 14 0 5 -19 11 -41 14 -23 3 -45 10
-48 15 -3 5 -30 13 -58 17 -29 4 -53 11 -53 16 0 5 -18 9 -40 9 -22 0 -42 6
-47 14 -5 8 -32 15 -67 18 -33 3 -62 10 -64 16 -2 7 -16 12 -31 12 -15 0 -36
7 -47 15 -10 8 -36 15 -56 15 -20 0 -43 7 -52 15 -8 8 -32 15 -56 15 -27 0
-43 5 -46 15 -4 10 -19 15 -43 15 -21 0 -46 7 -57 15 -10 8 -35 15 -55 15 -19
0 -44 7 -55 15 -10 8 -29 15 -41 15 -12 0 -28 7 -37 15 -9 9 -34 15 -66 15
-36 0 -52 4 -56 15 -5 11 -22 15 -69 15 -47 0 -64 -4 -69 -15z m84 -114 c0 -5
25 -13 55 -16 30 -4 55 -11 55 -16 0 -5 15 -9 34 -9 18 0 39 -7 46 -15 8 -9
29 -15 56 -15 23 0 49 -6 56 -13 7 -8 33 -16 58 -20 24 -3 46 -11 48 -16 2 -6
24 -11 48 -11 32 0 44 -4 44 -15 0 -11 13 -15 54 -15 39 0 55 -4 60 -15 3 -10
19 -15 45 -15 22 0 46 -7 55 -15 8 -8 32 -15 55 -15 22 0 46 -7 55 -15 8 -8
32 -15 55 -15 30 0 41 -4 41 -15 0 -11 12 -15 48 -15 26 0 56 -7 66 -15 11 -8
31 -15 45 -15 14 -1 37 -7 51 -15 14 -8 40 -14 58 -15 22 0 32 -5 32 -15 0
-11 13 -15 54 -15 30 0 56 -5 58 -11 2 -5 22 -13 46 -16 23 -3 42 -9 42 -13 0
-5 24 -11 53 -15 28 -4 55 -12 58 -18 4 -5 30 -12 58 -15 28 -2 51 -8 51 -12
0 -5 14 -11 30 -15 17 -4 30 -13 30 -21 0 -8 5 -14 11 -14 7 0 9 -27 5 -82 -3
-46 -9 -175 -15 -287 -5 -121 -14 -208 -20 -214 -7 -7 -11 -60 -11 -138 0 -88
-4 -129 -12 -131 -6 -2 -15 -38 -19 -84 -4 -43 -12 -99 -18 -124 -5 -25 -10
-62 -11 -82 0 -21 -4 -38 -9 -38 -4 0 -11 -25 -14 -56 -3 -31 -11 -62 -16 -67
-6 -6 -11 -33 -11 -59 0 -34 -5 -50 -15 -54 -11 -5 -15 -21 -15 -59 0 -29 -5
-55 -11 -57 -5 -2 -13 -22 -16 -46 -3 -23 -9 -42 -14 -42 -4 0 -11 -20 -15
-45 -3 -25 -10 -45 -15 -45 -5 0 -9 -13 -9 -29 0 -16 -7 -36 -15 -45 -8 -8
-15 -26 -15 -41 0 -15 -7 -33 -15 -41 -8 -9 -15 -29 -15 -45 0 -16 -4 -29 -9
-29 -5 0 -12 -14 -16 -30 -4 -17 -10 -30 -15 -30 -4 0 -11 -16 -14 -35 -4 -19
-11 -35 -16 -35 -6 0 -10 -9 -10 -20 0 -19 -57 -139 -72 -150 -3 -3 -10 -18
-13 -33 -4 -15 -11 -27 -16 -27 -5 0 -9 -11 -9 -25 0 -14 -7 -28 -15 -31 -8
-4 -15 -14 -15 -24 0 -10 -7 -23 -15 -30 -8 -7 -15 -19 -15 -26 0 -8 -7 -14
-15 -14 -9 0 -15 -9 -15 -25 0 -14 -4 -25 -10 -25 -5 0 -10 -7 -10 -15 0 -9
-7 -18 -15 -21 -8 -4 -15 -17 -15 -30 0 -15 -6 -24 -15 -24 -8 0 -15 -9 -15
-19 0 -10 -7 -21 -15 -25 -8 -3 -15 -15 -15 -26 0 -11 -7 -20 -15 -20 -8 0
-15 -7 -15 -15 0 -8 -4 -15 -10 -15 -5 0 -10 -6 -10 -13 0 -12 -9 -26 -50 -74
-5 -7 -10 -17 -10 -23 0 -5 -7 -10 -15 -10 -8 0 -15 -7 -15 -15 0 -8 -4 -15
-10 -15 -5 0 -10 -7 -10 -15 0 -8 -6 -15 -14 -15 -8 0 -17 -11 -20 -25 -4 -14
-11 -25 -16 -25 -6 0 -10 -7 -10 -15 0 -8 -7 -15 -15 -15 -8 0 -15 -5 -15 -10
0 -6 -18 -27 -40 -49 -22 -21 -40 -44 -40 -50 0 -6 -7 -11 -15 -11 -8 0 -15
-4 -15 -10 0 -12 -68 -80 -80 -80 -6 0 -10 -7 -10 -15 0 -8 -4 -15 -9 -15 -4
0 -22 -14 -39 -30 -18 -17 -35 -30 -38 -30 -3 0 -27 -20 -52 -45 -25 -25 -51
-45 -59 -45 -7 0 -16 -7 -19 -15 -4 -8 -12 -15 -20 -15 -8 0 -14 -6 -14 -14 0
-7 -8 -17 -17 -20 -39 -15 -63 -31 -63 -43 0 -7 -11 -13 -25 -13 -16 0 -25 -6
-25 -15 0 -8 -9 -15 -20 -15 -11 0 -20 -4 -20 -9 0 -5 -10 -13 -22 -17 -12 -3
-28 -13 -36 -20 -7 -8 -22 -14 -32 -14 -10 0 -20 -4 -22 -9 -6 -16 -46 -22
-59 -9 -8 7 -35 23 -61 36 -27 13 -48 28 -48 33 0 5 -11 9 -25 9 -15 0 -25 6
-25 14 0 8 -11 17 -25 20 -14 4 -25 11 -25 16 0 6 -7 10 -15 10 -8 0 -15 7
-15 15 0 8 -9 15 -20 15 -11 0 -20 7 -20 15 0 8 -8 15 -18 15 -10 0 -29 13
-42 30 -14 16 -30 29 -36 30 -15 0 -144 125 -144 139 0 6 -5 11 -11 11 -7 0
-22 11 -35 25 -13 14 -28 25 -34 25 -5 0 -10 4 -10 10 0 5 -25 34 -55 64 -30
29 -55 57 -55 60 0 4 -11 17 -25 30 -14 13 -25 28 -25 35 0 6 -7 11 -15 11 -8
0 -15 6 -15 14 0 8 -7 16 -15 20 -8 3 -15 10 -15 16 0 6 -11 21 -25 34 -14 13
-25 28 -25 34 0 6 -14 25 -30 42 -16 17 -30 35 -30 40 0 6 -4 10 -9 10 -5 0
-13 10 -17 22 -6 20 -13 30 -40 61 -6 7 -15 23 -18 35 -4 12 -12 22 -17 22 -5
0 -9 7 -9 15 0 9 -7 18 -15 21 -8 4 -15 16 -15 29 0 13 -7 25 -15 29 -8 3 -15
12 -15 21 0 8 -3 15 -7 15 -5 0 -19 25 -33 55 -14 30 -28 55 -32 55 -5 0 -8 9
-8 20 0 11 -4 20 -10 20 -5 0 -12 11 -16 25 -3 14 -10 25 -15 25 -5 0 -9 5 -9
11 0 16 -43 103 -52 107 -5 2 -8 16 -8 32 0 15 -7 33 -15 40 -8 7 -15 25 -15
40 0 16 -7 30 -15 34 -8 3 -15 16 -15 30 0 14 -4 27 -9 31 -5 3 -19 37 -31 75
-12 39 -26 70 -31 70 -5 0 -9 20 -9 44 0 30 -5 46 -15 50 -9 3 -15 18 -15 38
0 18 -7 42 -15 52 -8 11 -15 35 -15 53 0 18 -4 33 -9 33 -5 0 -13 25 -16 55
-4 30 -11 55 -16 55 -5 0 -9 27 -9 59 0 43 -4 60 -15 65 -10 3 -15 19 -15 44
0 22 -7 56 -15 75 -8 21 -15 67 -15 106 0 46 -4 71 -12 73 -9 3 -14 34 -16 91
-2 48 -7 87 -11 87 -5 0 -11 71 -15 158 -3 87 -11 158 -16 160 -6 2 -10 99
-10 252 l0 248 30 7 c16 4 32 11 35 16 4 5 21 9 38 9 18 0 41 6 52 14 11 7 44
17 73 21 28 4 52 11 52 16 0 5 16 9 35 9 22 0 38 6 41 15 4 11 21 15 59 15 38
0 55 4 59 15 3 9 18 15 38 15 18 0 46 7 62 15 15 8 41 15 56 15 15 0 33 7 40
15 8 9 30 15 60 15 33 0 50 5 54 15 3 10 19 15 44 15 23 0 45 6 52 15 7 9 29
15 55 15 26 0 48 6 55 15 7 8 29 15 50 15 21 0 43 7 50 15 8 9 29 15 55 15 29
0 45 5 49 15 4 11 20 15 55 15 27 0 51 5 53 10 2 6 21 13 43 17 22 3 43 10 46
16 4 5 28 12 55 15 27 3 55 11 62 19 7 7 29 13 48 13 19 0 34 4 34 9 0 5 25
12 55 16 30 3 55 11 55 16 0 5 7 9 15 9 8 0 15 -4 15 -9z"/>
<path d="M1878 4063 c-16 -2 -28 -9 -28 -14 0 -5 -20 -9 -45 -9 -31 0 -47 -5
-51 -15 -4 -10 -19 -15 -43 -15 -20 0 -45 -6 -56 -14 -11 -7 -40 -16 -64 -19
-24 -3 -47 -10 -50 -15 -3 -5 -28 -12 -56 -15 -27 -3 -51 -10 -53 -16 -2 -6
-24 -11 -48 -11 -32 0 -44 -4 -44 -15 0 -11 -12 -15 -50 -15 -31 0 -52 -5 -57
-14 -4 -7 -30 -16 -58 -19 -27 -3 -51 -10 -53 -16 -2 -6 -21 -11 -43 -11 -26
0 -42 -5 -45 -15 -4 -11 -21 -15 -56 -15 -31 0 -55 -6 -64 -15 -9 -8 -28 -15
-43 -15 -15 0 -36 -7 -47 -15 -10 -8 -35 -15 -54 -15 -19 0 -44 -7 -54 -15
-11 -8 -35 -15 -54 -15 -18 0 -40 -7 -48 -15 -9 -9 -34 -15 -59 -15 -29 0 -45
-5 -49 -15 -3 -10 -19 -15 -46 -15 -29 0 -40 -4 -40 -15 0 -8 -4 -15 -10 -15
-5 0 -10 -11 -10 -25 0 -14 4 -25 8 -25 5 0 12 -100 15 -222 4 -132 11 -224
17 -226 6 -2 10 -46 10 -102 0 -74 4 -100 15 -110 11 -9 15 -33 15 -85 0 -42
6 -88 15 -108 8 -20 15 -52 15 -71 0 -18 7 -47 15 -62 8 -16 15 -46 15 -66 0
-20 4 -39 9 -42 4 -3 11 -29 13 -58 3 -29 11 -54 17 -56 6 -2 11 -16 11 -32 0
-15 7 -44 15 -63 8 -20 15 -47 15 -61 0 -13 5 -26 11 -28 5 -2 13 -22 16 -46
3 -23 9 -42 13 -42 4 0 10 -18 14 -40 3 -22 11 -40 16 -40 6 0 10 -14 10 -30
0 -18 6 -33 15 -36 8 -4 15 -18 15 -34 0 -16 7 -35 15 -44 8 -8 15 -26 15 -39
0 -14 7 -27 15 -31 8 -3 15 -17 15 -31 0 -14 4 -25 9 -25 5 0 12 -14 16 -30 4
-17 10 -30 15 -30 5 0 11 -14 15 -30 4 -16 11 -30 16 -30 5 0 9 -11 9 -24 0
-13 7 -26 15 -30 8 -3 15 -15 15 -26 0 -11 4 -20 10 -20 5 0 12 -11 16 -25 3
-14 10 -25 14 -25 4 0 11 -11 14 -25 4 -14 11 -25 16 -25 6 0 10 -7 10 -15 0
-9 7 -18 15 -21 8 -4 15 -16 15 -29 0 -13 7 -25 15 -29 8 -3 15 -12 15 -21 0
-8 4 -15 10 -15 5 0 12 -11 16 -25 3 -14 10 -25 15 -25 5 0 9 -7 9 -15 0 -8 7
-15 15 -15 9 0 15 -9 15 -24 0 -13 7 -26 15 -30 8 -3 15 -12 15 -21 0 -8 7
-15 15 -15 8 0 15 -7 15 -15 0 -8 5 -15 10 -15 6 0 10 -7 10 -15 0 -8 7 -15
15 -15 8 0 15 -5 15 -11 0 -13 54 -84 88 -115 12 -12 22 -26 22 -33 0 -6 7
-11 15 -11 8 0 15 -4 15 -10 0 -5 25 -34 55 -64 30 -29 55 -59 55 -65 0 -6 7
-11 15 -11 8 0 15 -7 15 -15 0 -8 7 -15 15 -15 8 0 15 -6 15 -14 0 -8 11 -17
25 -20 14 -4 25 -11 25 -16 0 -6 7 -10 15 -10 8 0 15 -7 15 -15 0 -8 7 -15 15
-15 8 0 15 -7 15 -15 0 -8 7 -15 15 -15 8 0 15 -4 15 -10 0 -5 11 -12 25 -16
14 -3 25 -12 25 -20 0 -8 6 -14 14 -14 8 0 16 -7 20 -15 3 -8 15 -15 26 -15
11 0 20 -7 20 -15 0 -8 9 -15 20 -15 11 0 20 -4 20 -9 0 -5 10 -13 23 -17 12
-4 25 -12 29 -18 5 -8 18 -5 43 8 19 11 35 22 35 26 0 5 11 11 25 14 14 4 25
11 25 16 0 6 7 10 15 10 7 0 18 6 22 12 9 15 41 36 66 44 9 4 17 13 17 20 0 8
4 14 10 14 5 0 23 13 40 30 17 16 37 30 45 30 8 0 15 7 15 15 0 8 7 15 15 15
8 0 15 7 15 15 0 8 7 15 15 15 8 0 15 7 15 15 0 8 5 15 11 15 11 0 39 24 39
34 0 3 25 30 55 60 30 29 55 59 55 65 0 6 7 11 15 11 8 0 15 5 15 10 0 13 37
50 50 50 6 0 10 7 10 15 0 8 5 15 10 15 6 0 10 7 10 15 0 7 6 18 13 22 8 4 22
22 33 38 10 17 24 34 31 38 7 4 13 15 13 22 0 8 5 15 10 15 6 0 10 7 10 15 0
8 6 15 13 15 6 0 21 20 32 45 11 25 24 45 30 45 5 0 19 20 30 45 11 25 22 45
26 45 4 0 10 11 13 25 4 14 11 25 16 25 6 0 10 7 10 15 0 9 7 18 15 21 8 4 15
17 15 30 0 15 6 24 15 24 9 0 15 10 15 26 0 14 6 32 13 39 31 35 37 45 37 60
0 9 7 23 15 31 8 9 15 24 15 35 0 11 7 22 15 25 8 4 15 17 15 30 0 13 4 24 9
24 5 0 13 15 16 33 4 17 11 37 15 42 4 6 11 25 15 43 3 17 11 32 16 32 5 0 9
11 9 25 0 14 7 28 15 31 10 4 15 20 15 44 0 21 7 43 15 50 8 7 15 27 15 45 0
19 5 35 10 37 6 2 13 21 17 43 3 22 10 43 15 46 5 3 12 25 15 48 3 22 10 41
14 41 5 0 9 19 9 43 0 24 7 52 15 63 8 10 15 35 15 55 0 20 7 53 15 72 8 20
15 54 15 75 0 21 5 43 11 49 6 6 13 47 16 92 3 44 9 81 13 81 4 0 10 44 14 98
4 53 11 99 16 100 6 2 10 54 10 120 0 65 7 167 15 227 18 137 19 219 3 232 -7
6 -31 13 -53 16 -22 4 -41 11 -43 17 -2 5 -23 10 -47 10 -25 0 -50 6 -59 15
-8 8 -32 15 -54 15 -26 0 -42 5 -46 15 -3 10 -20 15 -48 15 -24 0 -52 7 -62
15 -11 8 -32 15 -47 15 -15 0 -34 7 -43 15 -8 9 -33 15 -59 15 -27 0 -49 6
-57 15 -7 8 -29 15 -49 15 -20 0 -45 7 -55 15 -11 8 -32 15 -46 15 -14 0 -35
7 -46 15 -10 8 -40 15 -66 15 -36 0 -48 4 -48 15 0 11 -12 15 -44 15 -24 0
-46 5 -48 11 -2 6 -27 14 -56 17 -29 2 -52 8 -52 13 0 4 -17 11 -37 14 -21 3
-50 13 -65 21 -14 8 -40 14 -58 14 -17 0 -38 7 -46 15 -9 9 -34 15 -59 15 -24
0 -45 4 -47 9 -4 11 -65 19 -100 14z m-89 -908 c2 -11 7 -23 13 -26 5 -3 11
-23 15 -45 3 -21 9 -41 13 -44 8 -6 36 -94 45 -142 4 -21 11 -38 16 -38 5 0 9
-15 9 -34 0 -21 6 -36 15 -40 9 -3 15 -18 15 -40 0 -19 5 -36 11 -38 5 -2 13
-22 16 -46 3 -23 9 -42 13 -42 4 0 11 -20 14 -45 4 -25 11 -45 17 -45 5 0 9
-18 9 -40 0 -29 4 -40 15 -40 11 0 15 -12 15 -44 0 -30 5 -46 15 -50 8 -3 15
-18 15 -33 0 -15 7 -37 15 -47 8 -11 15 -35 15 -53 0 -18 5 -33 10 -33 6 0 10
-15 10 -34 0 -21 6 -36 15 -40 9 -3 15 -19 15 -41 0 -20 7 -43 15 -51 8 -9 15
-30 15 -49 0 -18 5 -35 11 -37 13 -4 29 -92 19 -108 -4 -7 -62 -10 -171 -8
l-164 3 -3 25 c-2 13 -10 33 -18 44 -8 11 -14 37 -14 57 0 20 -7 42 -15 49 -8
7 -15 25 -15 41 0 16 -8 38 -17 49 -16 19 -29 20 -193 20 -208 0 -230 -6 -230
-61 0 -24 -5 -39 -15 -43 -10 -3 -15 -19 -15 -46 0 -22 -4 -40 -9 -40 -4 0
-11 -19 -14 -41 -3 -23 -11 -46 -19 -50 -7 -5 -82 -9 -165 -9 l-153 0 0 34 c0
19 5 36 11 38 5 2 13 22 16 46 3 23 10 42 14 42 5 0 9 13 9 29 0 16 7 36 15
45 8 8 15 32 15 54 0 22 5 42 11 44 5 2 13 22 16 46 3 26 11 42 19 42 10 0 14
14 14 45 0 25 4 45 9 45 5 0 11 18 15 40 3 22 10 40 15 40 5 0 11 21 14 47 3
26 10 49 16 51 6 2 11 16 11 32 0 16 7 35 15 44 8 8 15 32 15 55 0 23 4 41 9
41 5 0 12 15 16 33 3 17 10 41 14 52 20 50 34 93 41 128 4 21 13 44 19 50 6 6
11 22 11 35 0 13 7 30 15 38 8 9 15 30 15 49 0 34 14 68 40 98 13 15 37 16
195 14 171 -2 180 -3 184 -22z m855 8 c5 -13 8 -686 6 -1326 0 -16 -12 -17
-152 -15 l-153 3 -3 655 c-1 360 0 665 3 678 5 22 8 22 149 22 126 0 145 -2
150 -17z"/>
<path d="M1583 2813 c-8 -3 -13 -22 -13 -47 0 -23 -7 -51 -15 -62 -8 -10 -15
-33 -15 -50 0 -16 -7 -39 -15 -50 -8 -10 -15 -35 -15 -54 0 -19 -7 -44 -15
-54 -8 -11 -15 -35 -15 -53 0 -18 -4 -33 -10 -33 -5 0 -10 -4 -10 -10 0 -6 47
-10 120 -10 l120 0 0 54 c0 30 -5 56 -11 58 -5 2 -13 22 -16 46 -3 23 -9 42
-13 42 -4 0 -10 26 -13 57 -3 32 -11 59 -17 61 -5 2 -10 18 -10 35 0 38 -10
77 -19 76 -3 0 -12 -3 -18 -6z"/>
</g>
</svg>
