<?xml version="1.0" encoding="utf-8"?>
<!-- Generator: Adobe Illustrator 27.0.0, SVG Export Plug-In . SVG Version: 6.00 Build 0)  -->
<svg version="1.1" id="Ebene_1" xmlns="http://www.w3.org/2000/svg" xmlns:xlink="http://www.w3.org/1999/xlink" x="0px" y="0px"
	 viewBox="0 0 457.09 183.99" style="enable-background:new 0 0 457.09 183.99;" xml:space="preserve">
<style type="text/css">
	.st0{fill:#1D1D1B;}
	.st1{fill:none;}
</style>
<g>
	<g>
		<path class="st0" d="M173.89,129.67h-3.44v-1.27h4.9v7.36c-1.51,0.66-2.97,0.91-4.6,0.91c-4.67,0-7.47-3.08-7.47-7.66
			c0-4.5,2.89-7.66,7.47-7.66c1.12,0,2.97,0.19,3.97,0.7l-0.17,1.36c-1.15-0.64-2.5-0.79-3.8-0.79c-3.84,0-6,2.72-6,6.39
			c0,3.73,2.1,6.39,6,6.39c0.91,0,2.44-0.11,3.14-0.53V129.67z"/>
		<path class="st0" d="M186.18,136.08c-0.93,0.38-2.14,0.59-3.14,0.59c-3.59,0-4.92-2.42-4.92-5.66c0-3.31,1.82-5.66,4.56-5.66
			c3.05,0,4.31,2.46,4.31,5.37v0.68h-7.4c0,2.29,1.23,4.14,3.56,4.14c0.98,0,2.4-0.4,3.03-0.81V136.08z M185.52,130.25
			c0-1.89-0.76-3.76-2.76-3.76c-1.97,0-3.18,1.97-3.18,3.76H185.52z"/>
		<path class="st0" d="M189.53,128.02c0-1.19,0-1.63-0.08-2.42h1.34v2.08h0.04c0.49-1.21,1.4-2.33,2.78-2.33
			c0.32,0,0.7,0.06,0.93,0.13v1.4c-0.28-0.08-0.64-0.13-0.98-0.13c-2.12,0-2.69,2.38-2.69,4.33v5.35h-1.34V128.02z"/>
		<path class="st0" d="M209.66,136.42v-7.19c0-1.53-0.57-2.74-2.29-2.74c-1.46,0-2.91,1.25-2.91,3.95v5.98h-1.34v-7.19
			c0-1.53-0.57-2.74-2.29-2.74c-1.46,0-2.91,1.25-2.91,3.95v5.98h-1.34v-8.27c0-0.83,0-1.68-0.08-2.55h1.29v1.82l0.04,0.02
			c0.42-0.74,1.06-2.1,3.37-2.1c0.95,0,2.52,0.4,2.86,2.29h0.04c0.49-1.27,1.76-2.29,3.46-2.29c2.19,0,3.42,1.53,3.42,3.63v7.45
			H209.66z"/>
		<path class="st0" d="M220.48,134.68h-0.04c-0.59,1.29-2.1,1.99-3.44,1.99c-3.08,0-3.56-2.08-3.56-3.05c0-3.63,3.86-3.8,6.66-3.8
			h0.25v-0.55c0-1.85-0.66-2.78-2.46-2.78c-1.12,0-2.19,0.25-3.18,0.89v-1.29c0.83-0.4,2.23-0.74,3.18-0.74
			c2.67,0,3.8,1.21,3.8,4.03v4.77c0,0.87,0,1.53,0.11,2.27h-1.32V134.68z M220.36,130.97h-0.38c-2.31,0-5.07,0.23-5.07,2.61
			c0,1.42,1.02,1.95,2.25,1.95c3.14,0,3.2-2.74,3.2-3.9V130.97z"/>
		<path class="st0" d="M224.87,128.15c0-0.83,0-1.68-0.08-2.55h1.29v1.93h0.04c0.45-0.98,1.25-2.19,3.5-2.19
			c2.67,0,3.69,1.78,3.69,4.16v6.92h-1.34v-6.58c0-2.04-0.72-3.35-2.57-3.35c-2.44,0-3.2,2.14-3.2,3.95v5.98h-1.34V128.15z"/>
		<path class="st0" d="M247.24,121.61h1.65l5.88,14.81h-1.53l-1.59-3.97h-7.47l-1.59,3.97h-1.42L247.24,121.61z M247.96,123.01
			l-3.22,8.17h6.43L247.96,123.01z"/>
		<path class="st0" d="M263.98,136.08c-0.93,0.38-2.14,0.59-3.14,0.59c-3.59,0-4.92-2.42-4.92-5.66c0-3.31,1.82-5.66,4.56-5.66
			c3.05,0,4.31,2.46,4.31,5.37v0.68h-7.4c0,2.29,1.23,4.14,3.56,4.14c0.97,0,2.4-0.4,3.03-0.81V136.08z M263.32,130.25
			c0-1.89-0.76-3.76-2.76-3.76c-1.97,0-3.18,1.97-3.18,3.76H263.32z"/>
		<path class="st0" d="M267.33,128.02c0-1.19,0-1.63-0.08-2.42h1.34v2.08h0.04c0.49-1.21,1.4-2.33,2.78-2.33
			c0.32,0,0.7,0.06,0.93,0.13v1.4c-0.28-0.08-0.64-0.13-0.98-0.13c-2.12,0-2.69,2.38-2.69,4.33v5.35h-1.34V128.02z"/>
		<path class="st0" d="M278.23,125.35c3.5,0,5.05,2.72,5.05,5.66c0,2.95-1.55,5.66-5.05,5.66c-3.5,0-5.05-2.72-5.05-5.66
			C273.18,128.06,274.73,125.35,278.23,125.35z M278.23,135.53c2.33,0,3.59-2.02,3.59-4.52c0-2.5-1.25-4.52-3.59-4.52
			c-2.33,0-3.59,2.02-3.59,4.52C274.65,133.51,275.9,135.53,278.23,135.53z"/>
		<path class="st0" d="M284.98,134.85c0.81,0.4,1.78,0.68,2.82,0.68c1.27,0,2.4-0.7,2.4-1.93c0-2.57-5.2-2.16-5.2-5.3
			c0-2.14,1.74-2.95,3.52-2.95c0.57,0,1.72,0.13,2.67,0.49l-0.13,1.17c-0.7-0.32-1.65-0.51-2.4-0.51c-1.38,0-2.33,0.42-2.33,1.8
			c0,2.02,5.32,1.76,5.32,5.3c0,2.29-2.14,3.08-3.78,3.08c-1.04,0-2.08-0.13-3.03-0.51L284.98,134.85z"/>
		<path class="st0" d="M293.93,125.6h1.34l-0.08,1.97h0.04c0.34-0.59,1.17-2.23,3.46-2.23c3.18,0,4.45,2.38,4.45,5.66
			c0,3.2-1.49,5.66-4.45,5.66c-1.7,0-2.72-0.7-3.37-2.1h-0.04v6.3h-1.34V125.6z M298.47,126.49c-2.38,0-3.2,2.55-3.2,4.52
			s0.83,4.52,3.2,4.52c2.55,0,3.2-2.42,3.2-4.52C301.68,128.91,301.02,126.49,298.47,126.49z"/>
		<path class="st0" d="M312.07,134.68h-0.04c-0.59,1.29-2.1,1.99-3.44,1.99c-3.08,0-3.56-2.08-3.56-3.05c0-3.63,3.86-3.8,6.66-3.8
			h0.26v-0.55c0-1.85-0.66-2.78-2.46-2.78c-1.13,0-2.19,0.25-3.18,0.89v-1.29c0.83-0.4,2.23-0.74,3.18-0.74
			c2.67,0,3.8,1.21,3.8,4.03v4.77c0,0.87,0,1.53,0.11,2.27h-1.31V134.68z M311.94,130.97h-0.38c-2.31,0-5.07,0.23-5.07,2.61
			c0,1.42,1.02,1.95,2.25,1.95c3.14,0,3.2-2.74,3.2-3.9V130.97z"/>
		<path class="st0" d="M323.51,127.04c-0.72-0.32-1.59-0.55-2.31-0.55c-2.61,0-4.07,1.89-4.07,4.52c0,2.46,1.49,4.52,3.93,4.52
			c0.85,0,1.63-0.19,2.44-0.49l0.13,1.25c-0.91,0.32-1.76,0.38-2.78,0.38c-3.48,0-5.18-2.65-5.18-5.66c0-3.33,2.14-5.66,5.35-5.66
			c1.29,0,2.23,0.3,2.61,0.42L323.51,127.04z"/>
		<path class="st0" d="M333.14,136.08c-0.93,0.38-2.14,0.59-3.14,0.59c-3.59,0-4.92-2.42-4.92-5.66c0-3.31,1.83-5.66,4.56-5.66
			c3.06,0,4.31,2.46,4.31,5.37v0.68h-7.4c0,2.29,1.23,4.14,3.56,4.14c0.98,0,2.4-0.4,3.03-0.81V136.08z M332.48,130.25
			c0-1.89-0.76-3.76-2.76-3.76c-1.97,0-3.18,1.97-3.18,3.76H332.48z"/>
		<path class="st0" d="M352.7,123.27c-0.93-0.49-2.27-0.64-3.31-0.64c-3.84,0-6,2.72-6,6.39c0,3.73,2.1,6.39,6,6.39
			c0.98,0,2.46-0.13,3.31-0.64l0.08,1.27c-0.81,0.49-2.46,0.64-3.39,0.64c-4.67,0-7.47-3.08-7.47-7.66c0-4.5,2.89-7.66,7.47-7.66
			c0.87,0,2.63,0.15,3.39,0.55L352.7,123.27z"/>
		<path class="st0" d="M363.79,136.08c-0.93,0.38-2.14,0.59-3.14,0.59c-3.59,0-4.92-2.42-4.92-5.66c0-3.31,1.83-5.66,4.56-5.66
			c3.06,0,4.31,2.46,4.31,5.37v0.68h-7.4c0,2.29,1.23,4.14,3.56,4.14c0.98,0,2.4-0.4,3.03-0.81V136.08z M363.14,130.25
			c0-1.89-0.76-3.76-2.76-3.76c-1.97,0-3.18,1.97-3.18,3.76H363.14z"/>
		<path class="st0" d="M367.15,128.15c0-0.83,0-1.68-0.08-2.55h1.29v1.93h0.04c0.45-0.98,1.25-2.19,3.5-2.19
			c2.67,0,3.69,1.78,3.69,4.16v6.92h-1.34v-6.58c0-2.04-0.72-3.35-2.57-3.35c-2.44,0-3.2,2.14-3.2,3.95v5.98h-1.34V128.15z"/>
		<path class="st0" d="M383.61,126.75h-2.46v7c0,0.98,0.36,1.78,1.44,1.78c0.51,0,0.85-0.11,1.23-0.25l0.08,1.1
			c-0.32,0.13-0.97,0.3-1.63,0.3c-2.38,0-2.46-1.63-2.46-3.61v-6.32h-2.12v-1.15h2.12v-2.61l1.34-0.47v3.08h2.46V126.75z"/>
		<path class="st0" d="M393.26,136.08c-0.93,0.38-2.14,0.59-3.14,0.59c-3.59,0-4.92-2.42-4.92-5.66c0-3.31,1.82-5.66,4.56-5.66
			c3.05,0,4.31,2.46,4.31,5.37v0.68h-7.4c0,2.29,1.23,4.14,3.56,4.14c0.97,0,2.4-0.4,3.03-0.81V136.08z M392.6,130.25
			c0-1.89-0.76-3.76-2.76-3.76c-1.97,0-3.18,1.97-3.18,3.76H392.6z"/>
		<path class="st0" d="M396.61,128.02c0-1.19,0-1.63-0.08-2.42h1.34v2.08h0.04c0.49-1.21,1.4-2.33,2.78-2.33
			c0.32,0,0.7,0.06,0.93,0.13v1.4c-0.28-0.08-0.64-0.13-0.98-0.13c-2.12,0-2.7,2.38-2.7,4.33v5.35h-1.34V128.02z"/>
	</g>
	<g>
		<g>
			<path class="st0" d="M170.07,98.56h-2.65v-1.45c0-0.91,0.32-1.79,1.34-1.79c0.66,0,1.04,0.25,1.32,0.41l0.25-2.52
				c-0.59-0.14-1.45-0.25-2.22-0.25c-2.41,0-3.72,1.63-3.72,3.97v1.63h-2.25v2.22h2.25v9.46h3.04v-9.46h2.65V98.56z"/>
			<path class="st0" d="M179.37,104.27c0,1.5-0.48,3.88-2.68,3.88c-1.95,0-1.97-1.93-1.97-3.36v-6.23h-3.03v7.37
				c0,2.63,1.2,4.58,3.97,4.58c1.59,0,2.9-0.73,3.83-1.86h0.05v1.59h2.88V98.56h-3.04V104.27z"/>
			<path class="st0" d="M239.08,107.83c-0.32,0.21-0.84,0.32-1.39,0.32c-1.16,0-1.43-0.93-1.43-1.93v-5.44h2.7v-2.22h-2.7v-3.31
				l-3.04,0.98v2.34h-2.24v2.22h2.24v5.94c0,2.31,1.32,3.79,3.7,3.79c0.91,0,1.61-0.09,2.25-0.27L239.08,107.83z"/>
			<path class="st0" d="M217.99,108.65v1.59h2.88V98.56h-3.04v5.71c0,1.5-0.48,3.88-2.67,3.88c-1.95,0-1.97-1.93-1.97-3.36v-6.23
				h-3.04v7.37c0,2.63,1.2,4.58,3.97,4.58c1.59,0,2.9-0.73,3.83-1.86H217.99z"/>
			<path class="st0" d="M230.51,98.56h-2.66v-1.45c0-0.91,0.32-1.79,1.34-1.79c0.66,0,1.04,0.25,1.32,0.41l0.25-2.52
				c-0.6-0.14-1.46-0.25-2.23-0.25c-2.4,0-3.72,1.63-3.72,3.97v1.63h-2.24v2.22h2.24v9.46h3.04v-9.46h2.66V98.56z"/>
			<path class="st0" d="M200.08,82.45h0.04v1.59H203V72.36h-3.04v5.72c0,1.49-0.47,3.87-2.67,3.87c-1.95,0-1.97-1.93-1.97-3.35
				v-6.24h-3.04v7.37c0,2.63,1.2,4.58,3.97,4.58C197.83,84.31,199.14,83.59,200.08,82.45z"/>
			<polygon class="st0" points="287.09,81.55 279.42,81.55 286.93,70.79 286.93,68.21 276.41,68.21 276.41,70.7 283.55,70.7 
				276.1,81.45 276.1,84.04 287.09,84.04 			"/>
			<path class="st0" d="M250.21,79.14h8.07c0-4.09-1.22-7.06-5.55-7.06c-3.63,0-5.43,2.79-5.43,6.17c0,3.83,2.25,6.05,6.11,6.05
				c1.64,0,2.9-0.31,4.01-0.93v-2.47c-1.13,0.64-2.4,1.18-3.88,1.18C251.66,82.09,250.34,81.02,250.21,79.14z M252.91,74.31
				c1.7,0,2.38,1.27,2.47,2.75h-5.17C250.34,75.49,251.21,74.31,252.91,74.31z"/>
			<path class="st0" d="M237.51,78.32c0-1.5,0.48-3.88,2.67-3.88c1.95,0,1.97,1.93,1.97,3.36v6.23h3.05v-7.37
				c0-2.64-1.2-4.59-3.97-4.59c-1.58,0-2.9,0.73-3.67,1.86h-0.05v-6.92h-3.04v17.01h3.04V78.32z"/>
			<path class="st0" d="M304.12,78.32c0-1.5,0.48-3.88,2.68-3.88c1.95,0,1.97,1.93,1.97,3.36v6.23h3.04v-7.37
				c0-2.64-1.2-4.59-3.97-4.59c-1.58,0-2.88,0.52-3.83,1.86h-0.04v-1.59h-2.88v11.68h3.04V78.32z"/>
			<path class="st0" d="M335.36,84.31c1.59,0,2.9-0.72,3.83-1.86h0.04v1.59h2.88V72.36h-3.04v5.72c0,1.49-0.48,3.87-2.68,3.87
				c-1.95,0-1.97-1.93-1.97-3.35v-6.24h-3.04v7.37C331.38,82.36,332.59,84.31,335.36,84.31z"/>
			<path class="st0" d="M396.71,105.95c0-1.68,0-4.77,2.48-4.77c0.54,0,1.08,0.09,1.36,0.25v-3.07c-0.32-0.08-0.63-0.08-0.92-0.08
				c-1.82,0-3.07,1.83-3.21,2.92h-0.04v-2.65h-2.7v11.68h3.04V105.95z"/>
			<path class="st0" d="M229.68,84.31c1.25,0,2.16-0.11,3.04-0.38l-0.13-2.51c-0.52,0.23-1.47,0.54-2.34,0.54
				c-2.13,0-3.15-1.65-3.15-3.81c0-2.2,1.21-3.7,3.08-3.7c0.93,0,1.52,0.18,2.06,0.43l0.27-2.4c-0.84-0.25-1.72-0.39-2.95-0.39
				c-3.65,0-5.64,2.68-5.64,6.06C223.93,81.7,225.86,84.31,229.68,84.31z"/>
			<path class="st0" d="M326.06,79.75c0-1.67,0-4.76,2.47-4.76c0.54,0,1.09,0.09,1.36,0.25v-3.07c-0.32-0.09-0.63-0.09-0.93-0.09
				c-1.82,0-3.07,1.84-3.2,2.93h-0.05v-2.65h-2.7v11.68h3.05V79.75z"/>
			<path class="st0" d="M315.39,80.52c0,2.31,1.31,3.79,3.7,3.79c0.91,0,1.61-0.09,2.25-0.27l-0.1-2.4
				c-0.32,0.2-0.83,0.31-1.38,0.31c-1.16,0-1.43-0.93-1.43-1.93v-5.44h2.7v-2.22h-2.7v-3.31l-3.04,0.98v2.33h-2.24v2.22h2.24V80.52z
				"/>
			<rect x="178.07" y="93.8" class="st0" width="2.63" height="2.63"/>
			<path class="st0" d="M168.61,68.21h-4.33v15.83h4.33c4.85,0,9.14-1.63,9.14-7.92C177.75,69.84,173.47,68.21,168.61,68.21z
				 M169.23,81.55h-1.77V70.7h1.77c2.65,0,5.22,1.97,5.22,5.42C174.44,79.57,171.88,81.55,169.23,81.55z"/>
			<rect x="173.4" y="93.8" class="st0" width="2.63" height="2.63"/>
			<path class="st0" d="M206.85,80.52c0,2.31,1.32,3.79,3.69,3.79c0.91,0,1.61-0.09,2.25-0.27l-0.1-2.4
				c-0.31,0.2-0.83,0.31-1.38,0.31c-1.15,0-1.43-0.93-1.43-1.93v-5.44h2.7v-2.22h-2.7v-3.31l-3.04,0.98v2.33h-2.24v2.22h2.24V80.52z
				"/>
			<path class="st0" d="M219.51,80.66c0,1.13-1.23,1.43-2,1.43c-1.04,0-2.04-0.29-2.99-0.77l-0.18,2.5c1.11,0.29,2.29,0.5,3.45,0.5
				c2.47,0,4.9-1.09,4.9-3.81c0-4.22-5.28-3.04-5.28-4.9c0-1,0.98-1.29,1.79-1.29c1.11,0,1.79,0.18,2.72,0.5l0.2-2.29
				c-0.95-0.2-1.88-0.43-3.31-0.43c-2.38,0-4.58,1.11-4.58,3.63C214.23,79.93,219.51,78.37,219.51,80.66z"/>
			<polygon class="st0" points="199.82,94.4 199.82,110.24 209.15,110.24 209.15,107.74 203,107.74 203,94.4 			"/>
			<path class="st0" d="M187.94,101.21h-0.04v-2.65h-2.7v11.68h3.04v-4.29c0-1.68,0-4.77,2.47-4.77c0.55,0,1.09,0.09,1.36,0.25
				v-3.07c-0.32-0.08-0.63-0.08-0.93-0.08C189.32,98.29,188.08,100.12,187.94,101.21z"/>
			<path class="st0" d="M182.27,79.14h8.08c0-4.09-1.23-7.06-5.56-7.06c-3.63,0-5.42,2.79-5.42,6.17c0,3.83,2.24,6.05,6.1,6.05
				c1.63,0,2.9-0.31,4.02-0.93v-2.47c-1.14,0.64-2.41,1.18-3.88,1.18C183.72,82.09,182.41,81.02,182.27,79.14z M184.97,74.31
				c1.7,0,2.38,1.27,2.47,2.75h-5.17C182.41,75.49,183.27,74.31,184.97,74.31z"/>
			<rect x="239.99" y="102.89" class="st0" width="5.96" height="2.5"/>
			<path class="st0" d="M377.38,107.63c-0.02-0.86-0.04-1.75-0.04-2.93v-1.5c0-3.45-1.48-4.92-5.03-4.92c-1.3,0-2.88,0.34-4.06,0.88
				l0.09,2.6c1.02-0.77,2.31-1.27,3.61-1.27c1.79,0,2.63,0.64,2.63,2.52h-1.68c-1.27,0-2.77,0.12-3.93,0.68
				c-1.16,0.56-1.99,1.59-1.99,3.33c0,2.22,2.02,3.47,4.09,3.47c1.38,0,2.9-0.73,3.59-2.02h0.05c0.02,0.36,0.02,1.13,0.14,1.75h2.68
				C377.45,109.33,377.41,108.52,377.38,107.63z M373.94,107.25c-0.48,0.63-1.21,1.04-2.13,1.04c-1.09,0-1.92-0.43-1.92-1.43
				c0-1.79,2.02-2.02,3.38-2.02h1.31C374.57,105.75,374.43,106.59,373.94,107.25z"/>
			<path class="st0" d="M360.76,110.24h3.04v-9.46h2.65v-2.22h-2.65v-1.45c0-0.91,0.31-1.79,1.34-1.79c0.66,0,1.04,0.25,1.32,0.41
				l0.25-2.52c-0.59-0.14-1.45-0.25-2.22-0.25c-2.4,0-3.72,1.63-3.72,3.97v1.63h-2.24v2.22h2.24V110.24z"/>
			<path class="st0" d="M353.41,98.29c-1.43,0-2.95,0.65-3.65,2.06c-0.66-1.45-1.81-2.06-3.44-2.06c-1.14,0-2.52,0.47-3.47,1.9
				h-0.04v-1.63h-2.84v11.68H343v-5.67c0-1.52,0.25-3.92,2.27-3.92c1.75,0,1.75,1.54,1.75,2.63v6.97h3.03v-5.67
				c0-1.52,0.26-3.92,2.27-3.92c1.74,0,1.74,1.54,1.74,2.63v6.97h3.04v-7.37C357.11,100.26,356.29,98.29,353.41,98.29z"/>
			<path class="st0" d="M387.72,104v6.24h3.04v-7.37c0-2.63-1.2-4.58-3.97-4.58c-1.59,0-2.9,0.72-3.67,1.86h-0.05v-6.92h-3.04v17.02
				h3.04v-5.72c0-1.5,0.48-3.88,2.68-3.88C387.71,100.65,387.72,102.57,387.72,104z"/>
			<path class="st0" d="M358.92,84.04h3.04v-7.37c0-2.61-0.82-4.59-3.7-4.59c-1.43,0-2.95,0.66-3.65,2.07
				c-0.65-1.45-1.82-2.07-3.44-2.07c-1.14,0-2.52,0.48-3.47,1.91h-0.04v-1.64h-2.84v11.68h3.04v-5.67c0-1.52,0.26-3.92,2.27-3.92
				c1.75,0,1.75,1.54,1.75,2.63v6.96h3.04v-5.67c0-1.52,0.25-3.92,2.27-3.92c1.74,0,1.74,1.54,1.74,2.63V84.04z"/>
			<path class="st0" d="M409.52,110.24l-0.1-2.41c-0.32,0.21-0.83,0.32-1.38,0.32c-1.15,0-1.43-0.93-1.43-1.93v-5.44h2.7v-2.22h-2.7
				v-3.31l-3.04,0.98v2.34h-2.25v2.22h2.25v5.94c0,2.31,1.31,3.79,3.69,3.79C408.19,110.51,408.89,110.42,409.52,110.24z"/>
			<path class="st0" d="M288.83,93.22v6.69h-0.04c-0.91-1.11-1.98-1.63-3.49-1.63c-3.59,0-4.9,2.85-4.9,6.08
				c0,3.2,1.31,6.15,4.9,6.15c1.43,0,2.68-0.45,3.58-1.59h0.05v1.32h2.95V93.22H288.83z M286.14,108.15c-2,0-2.57-2.18-2.57-3.79
				c0-1.57,0.55-3.72,2.52-3.72c1.95,0,2.72,2.08,2.72,3.72C288.81,106.02,288.15,108.15,286.14,108.15z"/>
			<path class="st0" d="M261.87,108.65v1.59h2.88V98.56h-3.04v5.71c0,1.5-0.48,3.88-2.67,3.88c-1.95,0-1.98-1.93-1.98-3.36v-6.23
				h-3.04v7.37c0,2.63,1.2,4.58,3.96,4.58c1.59,0,2.9-0.73,3.84-1.86H261.87z"/>
			<path class="st0" d="M262.82,75.6c0-1,0.98-1.29,1.79-1.29c1.11,0,1.79,0.18,2.72,0.5l0.21-2.29c-0.95-0.2-1.89-0.43-3.31-0.43
				c-2.38,0-4.58,1.11-4.58,3.63c0,4.22,5.28,2.65,5.28,4.94c0,1.13-1.23,1.43-1.99,1.43c-1.05,0-2.05-0.29-3-0.77l-0.18,2.5
				c1.12,0.29,2.29,0.5,3.45,0.5c2.47,0,4.9-1.09,4.9-3.81C268.1,76.28,262.82,77.46,262.82,75.6z"/>
			<path class="st0" d="M270.63,104.52c0-1.5,0.47-3.88,2.67-3.88c1.95,0,1.97,1.93,1.97,3.36v6.24h3.04v-7.37
				c0-2.63-1.21-4.58-3.97-4.58c-1.59,0-2.88,0.51-3.84,1.86h-0.04v-1.59h-2.88v11.68h3.04V104.52z"/>
			<path class="st0" d="M334.24,108.65h0.05v1.59h2.88V98.56h-3.04v5.71c0,1.5-0.48,3.88-2.68,3.88c-1.95,0-1.97-1.93-1.97-3.36
				v-6.23h-3.04v7.37c0,2.63,1.21,4.58,3.97,4.58C332,110.51,333.31,109.79,334.24,108.65z"/>
			<path class="st0" d="M324.18,107.63c-0.02-0.86-0.05-1.75-0.05-2.93v-1.5c0-3.45-1.47-4.92-5.03-4.92
				c-1.29,0-2.88,0.34-4.06,0.88l0.09,2.6c1.03-0.77,2.31-1.27,3.61-1.27c1.79,0,2.62,0.64,2.62,2.52h-1.68
				c-1.27,0-2.77,0.12-3.93,0.68c-1.15,0.56-1.99,1.59-1.99,3.33c0,2.22,2.02,3.47,4.08,3.47c1.38,0,2.91-0.73,3.61-2.02h0.04
				c0.02,0.36,0.02,1.13,0.13,1.75h2.68C324.24,109.33,324.2,108.52,324.18,107.63z M320.73,107.25c-0.48,0.63-1.2,1.04-2.13,1.04
				c-1.09,0-1.93-0.43-1.93-1.43c0-1.79,2.02-2.02,3.38-2.02h1.31C321.36,105.75,321.23,106.59,320.73,107.25z"/>
			<path class="st0" d="M310.25,104.05c-0.32-0.7-0.82-1.57-1.68-1.63v-0.05c2.02-0.27,3.27-1.82,3.27-3.68
				c0-4.4-4.05-4.29-7.45-4.29h-3.43v15.84h3.18v-6.58h1.02c1.34,0,1.75,0.45,2.21,1.63l1.9,4.95h3.54L310.25,104.05z
				 M305.17,101.17h-1.05V96.9h1.05c1.59,0,3.36,0.16,3.36,2.07C308.53,100.94,306.73,101.17,305.17,101.17z"/>
			<path class="st0" d="M291.01,79.14h8.07c0-4.09-1.22-7.06-5.56-7.06c-3.63,0-5.42,2.79-5.42,6.17c0,3.83,2.25,6.05,6.11,6.05
				c1.63,0,2.9-0.31,4.01-0.93v-2.47c-1.14,0.64-2.41,1.18-3.88,1.18C292.46,82.09,291.15,81.02,291.01,79.14z M293.71,74.31
				c1.7,0,2.38,1.27,2.47,2.75h-5.17C291.15,75.49,292.01,74.31,293.71,74.31z"/>
		</g>
		<path class="st0" d="M116.91,57.74V31.78L90.99,57.74H68.75L47.57,78.92l26.09,0v26.02l26.03-26.03h22.04l21.17-21.18H116.91
			L116.91,57.74z M111.58,44.67v13.08H98.5L111.58,44.67L111.58,44.67z M60.43,73.58l10.48-10.49H85.6L75.12,73.58H60.43
			L60.43,73.58z M78.94,92.18V78.92h13.24L78.94,92.18L78.94,92.18z M97.55,73.58H82.69l10.48-10.49h14.86L97.55,73.58L97.55,73.58z
			 M119.55,73.58h-14.47l10.48-10.49h14.48L119.55,73.58L119.55,73.58z M99.78,94.5h4.33c4.85,0,9.14,1.63,9.14,7.91
			c0,6.28-4.29,7.91-9.14,7.91h-4.33V94.5L99.78,94.5z M102.95,107.83h1.77c2.65,0,5.21-1.97,5.21-5.42c0-3.45-2.56-5.42-5.21-5.42
			h-1.77V107.83L102.95,107.83z M116.6,94.5h3.18v13.33h6.14v2.49h-9.32V94.5L116.6,94.5z M128.76,94.5h3.42
			c3.4,0,7.46-0.11,7.46,4.29c0,1.86-1.25,3.4-3.27,3.67v0.05c0.86,0.07,1.36,0.93,1.68,1.63l2.54,6.19h-3.54l-1.9-4.94
			c-0.46-1.18-0.86-1.63-2.2-1.63h-1.02v6.57h-3.17V94.5L128.76,94.5z M131.94,101.26h1.05c1.56,0,3.35-0.23,3.35-2.2
			c0-1.9-1.77-2.06-3.35-2.06h-1.05V101.26L131.94,101.26z"/>
	</g>
</g>
<rect class="st1" width="457.09" height="183.99"/>
</svg>
