<?xml version="1.0" encoding="UTF-8" standalone="no"?>
<!-- Created with Inkscape (http://www.inkscape.org/) -->

<svg
   version="1.1"
   id="svg2"
   width="290.79999"
   height="294.73334"
   viewBox="0 0 290.79999 294.73334"
   sodipodi:docname="EN_fundedbyEU_VERTICAL_RGB_POS.eps"
   xmlns:inkscape="http://www.inkscape.org/namespaces/inkscape"
   xmlns:sodipodi="http://sodipodi.sourceforge.net/DTD/sodipodi-0.dtd"
   xmlns="http://www.w3.org/2000/svg"
   xmlns:svg="http://www.w3.org/2000/svg">
  <defs
     id="defs6" />
  <sodipodi:namedview
     id="namedview4"
     pagecolor="#ffffff"
     bordercolor="#000000"
     borderopacity="0.25"
     inkscape:showpageshadow="2"
     inkscape:pageopacity="0.0"
     inkscape:pagecheckerboard="0"
     inkscape:deskcolor="#d1d1d1" />
  <g
     id="g8"
     inkscape:groupmode="layer"
     inkscape:label="ink_ext_XXXXXX"
     transform="matrix(1.3333333,0,0,-1.3333333,0,294.73333)">
    <g
       id="g10"
       transform="scale(0.1)">
      <path
         d="M 172.145,2025.38 H 2003.65 V 781.309 H 172.145 V 2025.38"
         style="fill:#ffffff;fill-opacity:1;fill-rule:nonzero;stroke:none"
         id="path12" />
      <path
         d="M 207.367,1991.27 H 1968.43 V 817.211 H 207.367 V 1991.27"
         style="fill:#2a3c93;fill-opacity:1;fill-rule:nonzero;stroke:none"
         id="path14" />
      <path
         d="m 1050.37,1735.46 37.16,27.12 37.16,-27.12 -14.14,43.86 37.74,27.12 h -46.52 l -14.24,44.38 -14.24,-44.43 -46.5,0.05 37.72,-27.12 -14.14,-43.86"
         style="fill:#fbca07;fill-opacity:1;fill-rule:nonzero;stroke:none"
         id="path16" />
      <path
         d="m 858.066,1683.8 37.161,27.11 37.136,-27.11 -14.117,43.85 37.719,27.12 h -46.524 l -14.238,44.44 -14.238,-44.49 -46.5,0.05 37.719,-27.12 -14.118,-43.85"
         style="fill:#fbca07;fill-opacity:1;fill-rule:nonzero;stroke:none"
         id="path18" />
      <path
         d="m 754.516,1658.18 -14.239,-44.48 -46.5,0.04 37.719,-27.11 -14.141,-43.86 37.161,27.12 37.16,-27.12 -14.141,43.86 37.719,27.11 h -46.5 l -14.238,44.44"
         style="fill:#fbca07;fill-opacity:1;fill-rule:nonzero;stroke:none"
         id="path20" />
      <path
         d="m 702.898,1377.82 37.137,-27.11 -14.117,43.85 37.719,27.12 h -46.5 l -14.239,44.44 -14.238,-44.53 -46.523,0.09 37.742,-27.12 -14.141,-43.85 37.16,27.11"
         style="fill:#fbca07;fill-opacity:1;fill-rule:nonzero;stroke:none"
         id="path22" />
      <path
         d="m 768.754,1229.04 -14.238,44.44 -14.239,-44.49 -46.5,0.05 37.719,-27.12 -14.141,-43.86 37.161,27.17 37.16,-27.17 -14.141,43.86 37.719,27.12 h -46.5"
         style="fill:#fbca07;fill-opacity:1;fill-rule:nonzero;stroke:none"
         id="path24" />
      <path
         d="m 909.734,1088.06 -14.238,44.39 -14.215,-44.44 -46.523,0.05 37.719,-27.12 -14.118,-43.86 37.161,27.12 37.136,-27.12 -14.117,43.86 37.719,27.12 h -46.524"
         style="fill:#fbca07;fill-opacity:1;fill-rule:nonzero;stroke:none"
         id="path26" />
      <path
         d="m 1101.8,1036.97 -14.24,44.44 -14.22,-44.48 -46.52,0.04 37.72,-27.11 -14.12,-43.86 37.16,27.121 37.14,-27.121 -14.14,43.86 37.74,27.11 h -46.52"
         style="fill:#fbca07;fill-opacity:1;fill-rule:nonzero;stroke:none"
         id="path28" />
      <path
         d="m 1293.86,1088.06 -14.22,44.39 -14.26,-44.44 -46.47,0.05 37.69,-27.12 -14.12,-43.86 37.16,27.12 37.16,-27.12 -14.16,43.86 37.74,27.12 h -46.52"
         style="fill:#fbca07;fill-opacity:1;fill-rule:nonzero;stroke:none"
         id="path30" />
      <path
         d="m 1434.88,1229.04 -14.26,44.44 -14.26,-44.49 -46.48,0.05 37.75,-27.12 -14.17,-43.86 37.16,27.17 37.16,-27.17 -14.16,43.86 37.74,27.12 h -46.48"
         style="fill:#fbca07;fill-opacity:1;fill-rule:nonzero;stroke:none"
         id="path32" />
      <path
         d="m 1532.44,1422.21 h -46.52 l -14.26,44.44 -14.22,-44.48 -46.52,0.04 37.74,-27.11 -14.12,-43.86 37.12,27.17 37.16,-27.17 -14.12,43.86 37.74,27.11"
         style="fill:#fbca07;fill-opacity:1;fill-rule:nonzero;stroke:none"
         id="path34" />
      <path
         d="m 1383.46,1543.35 37.16,27.12 37.16,-27.12 -14.16,43.86 37.74,27.07 h -46.48 l -14.26,44.43 -14.26,-44.48 -46.48,0.05 37.75,-27.07 -14.17,-43.86"
         style="fill:#fbca07;fill-opacity:1;fill-rule:nonzero;stroke:none"
         id="path36" />
      <path
         d="m 1280.18,1799.16 -14.22,-44.49 -46.52,0.1 37.69,-27.17 -14.11,-43.85 37.21,27.16 37.11,-27.16 -14.12,43.85 37.74,27.17 h -46.57 l -14.21,44.39"
         style="fill:#fbca07;fill-opacity:1;fill-rule:nonzero;stroke:none"
         id="path38" />
      <g
         id="g40"
         transform="scale(10)">
        <text
           xml:space="preserve"
           transform="matrix(1,0,0,-1,53.509,48.1969)"
           style="font-variant:normal;font-weight:bold;font-size:21px;font-family:Arial;-inkscape-font-specification:Arial-BoldMT;writing-mode:lr-tb;fill:#2a3c93;fill-opacity:1;fill-rule:nonzero;stroke:none"
           id="text46"><tspan
             x="0 12.8276 25.654699 38.4828 51.310894 62.989594 75.816689 81.651649 94.478745 106.15844"
             y="0"
             sodipodi:role="line"
             id="tspan42">Funded by </tspan><tspan
             x="-43.753502 -36.760502 -23.929501 -12.2535 -6.4155002 7.5914998 20.422501 28.588295 41.415394 54.242489 65.922188 77.601883 90.428978 96.263939 111.42895 124.25603 130.091 142.91809"
             y="25.200001"
             sodipodi:role="line"
             id="tspan44">the European Union</tspan></text>
      </g>
    </g>
  </g>
</svg>
